<svg width="77" height="75" viewBox="0 0 77 75" fill="none" xmlns="http://www.w3.org/2000/svg">
<path d="M0 63.362H2.67256V46.5363H4.9134V63.3411H10.1585V65.564H2.30208C2.30208 66.7501 2.1811 67.8765 2.33049 68.9656C2.55158 70.5805 3.93642 71.6636 5.57821 71.7188C5.80229 71.7263 6.02638 71.7188 6.25046 71.7188H70.2578C72.9603 71.7188 74.242 70.4416 74.242 67.7511C74.242 67.0579 74.242 66.3662 74.242 65.5864H73.386C65.7691 65.5864 58.1503 65.5834 50.5294 65.5774C50.0379 65.5774 49.7362 65.673 49.4688 66.1436C48.8996 67.149 47.9525 67.6614 46.8082 67.6659C41.1075 67.6848 35.4068 67.6848 29.7061 67.6659C29.1415 67.681 28.5839 67.5377 28.0966 67.2523C27.6092 66.9669 27.2114 66.5508 26.9483 66.051C26.7213 65.6432 26.4628 65.5804 26.0639 65.5804C21.8322 65.5894 17.5996 65.5894 13.3659 65.5804H12.4994V63.3799H28.6827C28.6977 63.616 28.7216 63.8281 28.7261 64.0462C28.7515 65.1502 29.0443 65.4385 30.1766 65.4385C35.4551 65.4385 40.7335 65.4385 46.0119 65.4385C47.5581 65.4385 47.7179 65.2891 47.7642 63.7474C47.7642 63.6488 47.7822 63.5502 47.7986 63.3739H71.4933V53.1766H67.8317V59.5585H19.3131V57.364H65.5266V53.2035C65.2502 53.1901 64.9873 53.1662 64.7244 53.1662C61.412 53.1662 58.1005 53.1662 54.79 53.1662C51.1673 53.1662 48.8145 50.8148 48.8145 47.1801C48.8065 39.6599 48.8065 32.1406 48.8145 24.6224V23.6797H30.3783V21.418H48.7532V17.6997H37.2428V15.4245H48.807V14.546C48.807 11.7076 48.807 8.86925 48.807 6.03085C48.8159 2.33795 51.1389 0.0104633 54.8154 0.00747552C57.3291 0.00747552 59.8439 0.00747552 62.3596 0.00747552H63.1364V2.24832H62.3685C59.805 2.24832 57.24 2.24085 54.6765 2.24832C52.4237 2.24832 51.0687 3.6227 51.0538 5.88893C51.0538 6.88237 51.0538 7.8773 51.0538 8.92602H74.1121C74.1121 7.53819 74.2614 6.11302 74.0702 4.74312C73.8596 3.27163 72.4613 2.29164 70.933 2.26325C69.3645 2.23338 67.7959 2.2528 66.2273 2.2528C65.9853 2.2528 65.7432 2.2528 65.4654 2.2528V0.011957H66.5559C68.0005 0.011957 69.4436 -0.00148802 70.8882 0.011957C72.1441 0.015194 73.3626 0.439088 74.3494 1.21597C75.3361 1.99284 76.0341 3.07791 76.332 4.29794C76.3738 4.46376 76.4365 4.6251 76.4903 4.78943V14.0516H74.2271V11.264H51.115V37.3683H74.2704V16.3044H76.4873V48.4231C76.0959 49.8408 75.4625 51.0986 74.2659 52.0338C74.1359 52.1464 74.0294 52.2835 73.9525 52.4373C73.8756 52.5911 73.8298 52.7586 73.8177 52.9301C73.7849 56.1913 73.7968 59.454 73.7983 62.7151C73.7983 62.9064 73.8267 63.0976 73.8461 63.3665H76.4873V69.1927C75.5985 72.8168 72.9289 74.0269 69.6856 74.006C55.77 73.9193 41.8544 73.9686 27.9388 73.9686C20.546 73.9686 13.1522 73.9686 5.75747 73.9686C3.12971 73.9686 0.993423 72.4045 0.244982 69.9725C0.165806 69.7125 0.0821641 69.4541 0 69.1942V63.362ZM74.2285 39.7376H51.0911C51.0777 39.9751 51.0583 40.1693 51.0583 40.3635C51.0583 42.7029 51.0448 45.0424 51.0583 47.3848C51.0732 49.4987 52.4431 50.8745 54.5615 50.9223C55.3084 50.9403 56.0553 50.9223 56.8023 50.9223C61.405 50.9223 66.0091 50.9223 70.6103 50.9223C72.6017 50.9223 74.1434 49.6899 74.2076 47.8718C74.2988 45.1858 74.2285 42.4983 74.2285 39.7346V39.7376Z" fill="#0D3B54"/>
<path d="M16.9736 57.3311V59.5391H8.73181V21.4523H28.0195V23.6244H10.9592V57.3311H16.9736Z" fill="#0D3B54"/>
<path d="M4.9298 44.2028H2.68896V43.3692C2.68896 36.078 2.68896 28.7863 2.68896 21.4941C2.68896 17.7788 5.03736 15.417 8.73774 15.4155C17.1972 15.4155 25.6571 15.4155 34.1175 15.4155H34.8898V17.6489H8.94092C6.20859 17.6489 4.9328 18.9321 4.9328 21.6749C4.9328 28.8685 4.9328 36.0611 4.9328 43.2527L4.9298 44.2028Z" fill="#0D3B54"/>
<path d="M39.9616 38.2526C39.9573 40.9345 38.8898 43.5053 36.9931 45.4014C35.0964 47.2975 32.5254 48.3642 29.8435 48.3678C24.2817 48.3544 19.7254 43.7756 19.7478 38.2198C19.7841 35.5604 20.8672 33.0225 22.7622 31.1563C24.6571 29.2901 27.2113 28.246 29.8709 28.2503C32.5306 28.2546 35.0813 29.3071 36.9702 31.1794C38.8591 33.0518 39.9339 35.5932 39.9616 38.2526ZM37.7073 38.2526C37.705 36.1742 36.8803 34.1812 35.4133 32.7089C33.9463 31.2366 31.9562 30.4046 29.8779 30.3948C25.5784 30.3798 22.0304 33.8979 21.9931 38.2153C21.9557 42.5326 25.5471 46.1329 29.8734 46.118C31.9515 46.1085 33.9416 45.2775 35.4092 43.8062C36.8769 42.3349 37.703 40.3428 37.7073 38.2646V38.2526Z" fill="#0D3B54"/>
<path d="M65.5819 4.53397V6.68218H59.6855V4.53397H65.5819Z" fill="#0D3B54"/>
<path d="M5.66187 69.7245V67.5822H11.5717V69.7245H5.66187Z" fill="#0D3B54"/>
<path d="M55.1919 4.53098H57.3312V6.68517H55.1919V4.53098Z" fill="#0D3B54"/>
<path d="M70.0546 6.71356H67.9303V4.53845H70.0546V6.71356Z" fill="#0D3B54"/>
<path d="M16.0668 67.5807V69.729H13.92V67.5807H16.0668Z" fill="#0D3B54"/>
<path d="M24.2772 52.8196V50.6639H26.4239V52.8181L24.2772 52.8196Z" fill="#0D3B54"/>
<path d="M28.7874 50.6639H30.9236V52.8211H28.7874V50.6639Z" fill="#0D3B54"/>
<path d="M35.4381 50.6848V52.8017H33.272V50.6848H35.4381Z" fill="#0D3B54"/>
<path d="M62.6509 33.6783C60.1687 33.6805 57.7873 32.6965 56.0305 30.9429C54.2738 29.1892 53.2856 26.8095 53.2835 24.3273C53.2813 21.8451 54.2652 19.4636 56.0189 17.7069C57.7725 15.9502 60.1522 14.962 62.6345 14.9598C67.76 14.9598 71.9952 19.1846 71.9997 24.3176C71.9973 26.7974 71.012 29.1752 69.2596 30.9298C67.5072 32.6844 65.1307 33.6728 62.6509 33.6783ZM62.6673 31.4285C63.6017 31.4254 64.5262 31.2382 65.3881 30.8775C66.2501 30.5169 67.0325 29.9899 67.6907 29.3268C68.3488 28.6636 68.8698 27.8772 69.2239 27.0126C69.578 26.148 69.7583 25.222 69.7544 24.2877C69.729 20.3812 66.4678 17.1723 62.5837 17.2156C61.6504 17.2213 60.7275 17.4108 59.8674 17.7731C59.0074 18.1355 58.2272 18.6638 57.5714 19.3277C56.9155 19.9916 56.3968 20.7782 56.0449 21.6426C55.6931 22.5069 55.5148 23.4322 55.5205 24.3654C55.5262 25.2986 55.7157 26.2216 56.0781 27.0816C56.4405 27.9416 56.9687 28.7218 57.6326 29.3777C58.2965 30.0336 59.0831 30.5523 59.9475 30.9041C60.8119 31.256 61.7371 31.4342 62.6703 31.4285H62.6673Z" fill="#0D3B54"/>
<path d="M59.3374 41.9784H65.9792V48.6158H59.3374V41.9784ZM61.5782 44.2192V46.3585H63.7175V44.2192H61.5782Z" fill="#0D3B54"/>
<path d="M28.1629 42.9494L24.5178 39.3013L26.07 37.8075L28.0852 39.9766L33.5902 34.3805L35.0975 36.0357L28.1629 42.9494Z" fill="#0D3B54"/>
<path d="M61.1824 25.8877L66.1302 20.8936L67.4956 22.4159L61.2392 28.6723L57.6643 25.0735L59.2224 23.6961L61.1824 25.8877Z" fill="#0D3B54"/>
</svg>
