<svg width="12" height="12" viewBox="0 0 12 12" fill="none" xmlns="http://www.w3.org/2000/svg">
<path d="M2.91118 11.5823H0.601725V4.14519H2.91118V11.5823ZM1.75521 3.1307C1.01672 3.1307 0.417725 2.51903 0.417725 1.78054C0.417725 1.42582 0.558638 1.08562 0.809465 0.834794C1.06029 0.583967 1.40049 0.443054 1.75521 0.443054C2.10993 0.443054 2.45013 0.583967 2.70095 0.834794C2.95178 1.08562 3.09269 1.42582 3.09269 1.78054C3.09269 2.51903 2.49345 3.1307 1.75521 3.1307ZM11.5547 11.5823H9.25024V7.96196C9.25024 7.09915 9.23284 5.99266 8.04952 5.99266C6.84879 5.99266 6.66479 6.93007 6.66479 7.8998V11.5823H4.35782V4.14519H6.57279V5.15968H6.60511C6.91344 4.57536 7.6666 3.95871 8.79024 3.95871C11.1275 3.95871 11.5572 5.49785 11.5572 7.49699V11.5823H11.5547Z" fill="white"/>
</svg>
