<svg width="30" height="36" viewBox="0 0 30 36" fill="none" xmlns="http://www.w3.org/2000/svg">
<path fill-rule="evenodd" clip-rule="evenodd" d="M30 10C30 15.5228 25.5228 20 20 20C14.4772 20 10 15.5228 10 10C10 4.47715 14.4772 0 20 0C25.5228 0 30 4.47715 30 10ZM10 20C10 22.7614 7.7614 25 5 25C2.23858 25 0 22.7614 0 20C0 17.2386 2.23858 15 5 15C7.7614 15 10 17.2386 10 20ZM16.5 36C20.0899 36 23 33.0899 23 29.5C23 25.9101 20.0899 23 16.5 23C12.9101 23 10 25.9101 10 29.5C10 33.0899 12.9101 36 16.5 36Z" fill="white"/>
</svg>
