<svg width="36" height="22" viewBox="0 0 36 22" fill="none" xmlns="http://www.w3.org/2000/svg">
<path d="M36 1.57143C36 1.9882 35.842 2.3879 35.5607 2.6826C35.2794 2.9773 34.8978 3.14286 34.5 3.14286L6.78 3.14286C6.38218 3.14286 6.00065 2.97729 5.71934 2.68259C5.43804 2.38789 5.28 1.9882 5.28 1.57143C5.28 1.15466 5.43804 0.754958 5.71934 0.460258C6.00065 0.165558 6.38218 -2.30308e-06 6.78 -2.2683e-06L34.5 1.55063e-07C34.8978 1.89842e-07 35.2794 0.165561 35.5607 0.460261C35.842 0.754961 36 1.15466 36 1.57143ZM36 11C36 11.4168 35.842 11.8165 35.5607 12.1112C35.2794 12.4059 34.8978 12.5714 34.5 12.5714L13.5 12.5714C13.1022 12.5714 12.7206 12.4059 12.4393 12.1112C12.158 11.8165 12 11.4168 12 11C12 10.5832 12.158 10.1835 12.4393 9.88883C12.7206 9.59413 13.1022 9.42857 13.5 9.42857L34.5 9.42857C34.8978 9.42857 35.2794 9.59413 35.5607 9.88883C35.842 10.1835 36 10.5832 36 11ZM36 20.4286C36 20.8453 35.842 21.245 35.5607 21.5397C35.2794 21.8344 34.8978 22 34.5 22L1.5 22C1.10218 22 0.720645 21.8344 0.43934 21.5397C0.158036 21.245 1.00944e-07 20.8453 1.37379e-07 20.4286C1.73814e-07 20.0118 0.158036 19.6121 0.43934 19.3174C0.720645 19.0227 1.10218 18.8571 1.5 18.8571L34.5 18.8571C34.8978 18.8571 35.2794 19.0227 35.5607 19.3174C35.842 19.6121 36 20.0118 36 20.4286Z" fill="white"/>
</svg>
