<svg width="14" height="15" viewBox="0 0 14 15" fill="none" xmlns="http://www.w3.org/2000/svg">
<path d="M7 0.148804C7.23206 0.148804 7.45462 0.240991 7.61872 0.405085C7.78281 0.56918 7.875 0.791739 7.875 1.0238V6.2738H13.125C13.3571 6.2738 13.5796 6.36599 13.7437 6.53009C13.9078 6.69418 14 6.91674 14 7.1488C14 7.38087 13.9078 7.60343 13.7437 7.76752C13.5796 7.93162 13.3571 8.0238 13.125 8.0238H7.875V13.2738C7.875 13.5059 7.78281 13.7284 7.61872 13.8925C7.45462 14.0566 7.23206 14.1488 7 14.1488C6.76794 14.1488 6.54538 14.0566 6.38128 13.8925C6.21719 13.7284 6.125 13.5059 6.125 13.2738V8.0238H0.875C0.642936 8.0238 0.420376 7.93162 0.256282 7.76752C0.0921874 7.60343 0 7.38087 0 7.1488C0 6.91674 0.0921874 6.69418 0.256282 6.53009C0.420376 6.36599 0.642936 6.2738 0.875 6.2738H6.125V1.0238C6.125 0.791739 6.21719 0.56918 6.38128 0.405085C6.54538 0.240991 6.76794 0.148804 7 0.148804Z" fill="white"/>
</svg>
