<svg width="7" height="11" viewBox="0 0 7 11" fill="none" xmlns="http://www.w3.org/2000/svg">
<path id="CaretRightFill" d="M6.68094 6.21364L1.5514 10.7634C0.946935 11.3004 3.44065e-07 10.864 3.44065e-07 10.0491V0.949482C-0.000153886 0.767106 0.051546 0.58855 0.148909 0.435198C0.246272 0.281845 0.385171 0.160196 0.548972 0.0848191C0.712774 0.00944192 0.894534 -0.0164685 1.07249 0.0101908C1.25044 0.0368501 1.41704 0.114949 1.55234 0.235135L6.68001 4.78495C6.78051 4.87399 6.86106 4.9838 6.91625 5.10701C6.97145 5.23022 7 5.36397 7 5.49929C7 5.63461 6.97145 5.76837 6.91625 5.89158C6.86106 6.01478 6.78051 6.1246 6.68001 6.21364H6.68094Z" fill="#F16535"/>
</svg>
