<svg width="14" height="12" viewBox="0 0 14 12" fill="none" xmlns="http://www.w3.org/2000/svg">
<path d="M12.3435 3.21915C12.3522 3.34098 12.3522 3.46284 12.3522 3.58467C12.3522 7.30063 9.52387 11.5823 4.35455 11.5823C2.76197 11.5823 1.28255 11.121 0.0380859 10.3204C0.26436 10.3465 0.481901 10.3552 0.716882 10.3552C2.03094 10.3552 3.24061 9.91142 4.2066 9.1543C2.97084 9.12818 1.93523 8.31885 1.57842 7.20492C1.75249 7.23101 1.92653 7.24842 2.1093 7.24842C2.36166 7.24842 2.61405 7.2136 2.84901 7.15271C1.56104 6.89161 0.595025 5.7603 0.595025 4.394V4.3592C0.96922 4.56806 1.40438 4.6986 1.86558 4.71598C1.10846 4.21123 0.612437 3.34969 0.612437 2.375C0.612437 1.85285 0.751652 1.37422 0.995338 0.956491C2.37905 2.66219 4.45896 3.77609 6.79122 3.89795C6.74772 3.68908 6.7216 3.47154 6.7216 3.25398C6.7216 1.70491 7.97477 0.443054 9.53252 0.443054C10.3419 0.443054 11.0729 0.782452 11.5863 1.33071C12.2216 1.20888 12.8308 0.973902 13.3703 0.651916C13.1615 1.30462 12.7176 1.85288 12.1346 2.20096C12.7002 2.14007 13.2485 1.98339 13.7532 1.76585C13.3704 2.32279 12.8917 2.81881 12.3435 3.21915Z" fill="white"/>
</svg>
