<svg width="11" height="7" viewBox="0 0 11 7" fill="none" xmlns="http://www.w3.org/2000/svg">
<path id="CaretRightFill" d="M6.21364 0.319057L10.7634 5.4486C11.3004 6.05307 10.864 7 10.0491 7L0.949482 7C0.767106 7.00015 0.58855 6.94845 0.435198 6.85109C0.281845 6.75373 0.160196 6.61483 0.0848191 6.45103C0.00944193 6.28723 -0.0164685 6.10547 0.0101908 5.92751C0.0368501 5.74956 0.114949 5.58296 0.235135 5.44766L4.78495 0.319993C4.87399 0.219489 4.9838 0.138937 5.10701 0.083746C5.23022 0.0285545 5.36397 -1.07456e-07 5.49929 -1.05842e-07C5.63461 -1.04228e-07 5.76837 0.0285545 5.89158 0.083746C6.01478 0.138937 6.1246 0.219489 6.21364 0.319993L6.21364 0.319057Z" fill="#F16535"/>
</svg>
