<svg width="16" height="15" viewBox="0 0 16 15" fill="none" xmlns="http://www.w3.org/2000/svg">
<path d="M8 7.5C8.99456 7.5 9.94839 7.10491 10.6517 6.40165C11.3549 5.69839 11.75 4.74456 11.75 3.75C11.75 2.75544 11.3549 1.80161 10.6517 1.09835C9.94839 0.395088 8.99456 0 8 0C7.00544 0 6.05161 0.395088 5.34835 1.09835C4.64509 1.80161 4.25 2.75544 4.25 3.75C4.25 4.74456 4.64509 5.69839 5.34835 6.40165C6.05161 7.10491 7.00544 7.5 8 7.5ZM10.5 3.75C10.5 4.41304 10.2366 5.04893 9.76777 5.51777C9.29893 5.98661 8.66304 6.25 8 6.25C7.33696 6.25 6.70107 5.98661 6.23223 5.51777C5.76339 5.04893 5.5 4.41304 5.5 3.75C5.5 3.08696 5.76339 2.45107 6.23223 1.98223C6.70107 1.51339 7.33696 1.25 8 1.25C8.66304 1.25 9.29893 1.51339 9.76777 1.98223C10.2366 2.45107 10.5 3.08696 10.5 3.75ZM15.5 13.75C15.5 15 14.25 15 14.25 15H1.75C1.75 15 0.5 15 0.5 13.75C0.5 12.5 1.75 8.75 8 8.75C14.25 8.75 15.5 12.5 15.5 13.75ZM14.25 13.745C14.2487 13.4375 14.0575 12.5125 13.21 11.665C12.395 10.85 10.8612 10 8 10C5.1375 10 3.605 10.85 2.79 11.665C1.9425 12.5125 1.7525 13.4375 1.75 13.745H14.25Z" fill="white"/>
</svg>
