<svg width="18" height="18" viewBox="0 0 18 18" fill="none" xmlns="http://www.w3.org/2000/svg">
<path d="M3.375 0C2.47989 0 1.62145 0.355579 0.988515 0.988515C0.355579 1.62145 0 2.47989 0 3.375L0 14.625C0 15.5201 0.355579 16.3786 0.988515 17.0115C1.62145 17.6444 2.47989 18 3.375 18H14.625C15.5201 18 16.3786 17.6444 17.0115 17.0115C17.6444 16.3786 18 15.5201 18 14.625V3.375C18 2.47989 17.6444 1.62145 17.0115 0.988515C16.3786 0.355579 15.5201 0 14.625 0L3.375 0ZM6.1875 4.5C6.1875 4.94755 6.00971 5.37678 5.69324 5.69324C5.37678 6.00971 4.94755 6.1875 4.5 6.1875C4.05245 6.1875 3.62322 6.00971 3.30676 5.69324C2.99029 5.37678 2.8125 4.94755 2.8125 4.5C2.8125 4.05245 2.99029 3.62322 3.30676 3.30676C3.62322 2.99029 4.05245 2.8125 4.5 2.8125C4.94755 2.8125 5.37678 2.99029 5.69324 3.30676C6.00971 3.62322 6.1875 4.05245 6.1875 4.5ZM15.1875 4.5C15.1875 4.94755 15.0097 5.37678 14.6932 5.69324C14.3768 6.00971 13.9476 6.1875 13.5 6.1875C13.0524 6.1875 12.6232 6.00971 12.3068 5.69324C11.9903 5.37678 11.8125 4.94755 11.8125 4.5C11.8125 4.05245 11.9903 3.62322 12.3068 3.30676C12.6232 2.99029 13.0524 2.8125 13.5 2.8125C13.9476 2.8125 14.3768 2.99029 14.6932 3.30676C15.0097 3.62322 15.1875 4.05245 15.1875 4.5ZM13.5 15.1875C13.0524 15.1875 12.6232 15.0097 12.3068 14.6932C11.9903 14.3768 11.8125 13.9476 11.8125 13.5C11.8125 13.0524 11.9903 12.6232 12.3068 12.3068C12.6232 11.9903 13.0524 11.8125 13.5 11.8125C13.9476 11.8125 14.3768 11.9903 14.6932 12.3068C15.0097 12.6232 15.1875 13.0524 15.1875 13.5C15.1875 13.9476 15.0097 14.3768 14.6932 14.6932C14.3768 15.0097 13.9476 15.1875 13.5 15.1875ZM6.1875 13.5C6.1875 13.9476 6.00971 14.3768 5.69324 14.6932C5.37678 15.0097 4.94755 15.1875 4.5 15.1875C4.05245 15.1875 3.62322 15.0097 3.30676 14.6932C2.99029 14.3768 2.8125 13.9476 2.8125 13.5C2.8125 13.0524 2.99029 12.6232 3.30676 12.3068C3.62322 11.9903 4.05245 11.8125 4.5 11.8125C4.94755 11.8125 5.37678 11.9903 5.69324 12.3068C6.00971 12.6232 6.1875 13.0524 6.1875 13.5ZM9 10.6875C8.55245 10.6875 8.12322 10.5097 7.80676 10.1932C7.49029 9.87678 7.3125 9.44755 7.3125 9C7.3125 8.55245 7.49029 8.12322 7.80676 7.80676C8.12322 7.49029 8.55245 7.3125 9 7.3125C9.44755 7.3125 9.87678 7.49029 10.1932 7.80676C10.5097 8.12322 10.6875 8.55245 10.6875 9C10.6875 9.44755 10.5097 9.87678 10.1932 10.1932C9.87678 10.5097 9.44755 10.6875 9 10.6875Z" fill="#E99F3C"/>
</svg>
