<svg width="16" height="15" viewBox="0 0 16 15" fill="none" xmlns="http://www.w3.org/2000/svg">
<path d="M12.136 0.045692C12.3571 -0.0106609 12.5878 -0.0149465 12.8107 0.0331605C13.0337 0.0812674 13.2429 0.180502 13.4226 0.323332C13.6023 0.466161 13.7476 0.648831 13.8477 0.857472C13.9477 1.06611 13.9998 1.29524 14 1.52747V2.77077H14.5C14.8978 2.77077 15.2794 2.93183 15.5607 3.2185C15.842 3.50518 16 3.894 16 4.29943V13.4713C16 13.8768 15.842 14.2656 15.5607 14.5523C15.2794 14.8389 14.8978 15 14.5 15H1.5C1.10218 15 0.720644 14.8389 0.43934 14.5523C0.158035 14.2656 9.80916e-08 13.8768 9.80916e-08 13.4713V4.29943C-0.000139461 3.9059 0.148642 3.52748 0.415377 3.24294C0.682113 2.95839 1.04625 2.78963 1.432 2.77179L12.136 0.045692ZM5.562 2.77077H13V1.52747C12.9998 1.45015 12.9824 1.37389 12.949 1.30446C12.9156 1.23503 12.8672 1.17425 12.8074 1.12672C12.7475 1.0792 12.6779 1.04617 12.6036 1.03014C12.5294 1.01412 12.4526 1.01551 12.379 1.03422L5.562 2.77077ZM1.5 3.78987C1.36739 3.78987 1.24021 3.84356 1.14645 3.93912C1.05268 4.03468 1 4.16428 1 4.29943V13.4713C1 13.6065 1.05268 13.7361 1.14645 13.8317C1.24021 13.9272 1.36739 13.9809 1.5 13.9809H14.5C14.6326 13.9809 14.7598 13.9272 14.8536 13.8317C14.9473 13.7361 15 13.6065 15 13.4713V4.29943C15 4.16428 14.9473 4.03468 14.8536 3.93912C14.7598 3.84356 14.6326 3.78987 14.5 3.78987H1.5Z" fill="white"/>
</svg>
