<svg width="80" height="56" viewBox="0 0 80 56" fill="none" xmlns="http://www.w3.org/2000/svg">
<path d="M80 33.0671C79.4053 34.965 78.2097 36.0749 76.1378 36.054C74.8358 36.0415 73.5338 36.054 72.2318 36.054H71.2178V37.0385C71.2178 42.423 71.2178 47.8068 71.2178 53.1898C71.2178 54.653 70.8818 54.9937 69.4275 54.9958C68.7765 54.9958 68.1255 55.0146 67.4766 54.9958C66.6795 54.9645 66.2038 54.4963 66.2101 53.8044C66.2163 53.1125 66.6795 52.6798 67.4995 52.6547C67.9169 52.6422 68.3342 52.6547 68.8078 52.6547V29.2837H11.1964V52.6401H61.338C61.6238 52.6401 61.9118 52.6401 62.1976 52.6401C62.8633 52.6819 63.2576 53.0373 63.3181 53.7103C63.3786 54.3834 62.9613 54.8537 62.2874 54.9645C62.0545 54.9892 61.8202 54.9962 61.5863 54.9854H10.5871C9.12652 54.9854 8.80102 54.6488 8.80102 53.1773V36.0519H6.61225C5.62323 36.0519 4.6342 36.0645 3.64518 36.0519C2.16165 36.0206 1.0391 35.3475 0.390184 34.0056C-0.25873 32.6636 -0.0876324 31.3489 0.834618 30.1825C2.17626 28.4831 3.55963 26.8172 4.92214 25.1346C5.69416 24.1814 5.69625 23.8031 4.93884 22.8708C3.62432 21.2488 2.30771 19.6296 0.98902 18.0131C-0.0125191 16.7924 -0.304642 15.4505 0.38183 14.0019C1.0683 12.5534 2.33066 11.9012 3.92895 11.9117C4.45058 11.9117 4.97221 11.9117 5.49176 11.9117C6.32638 11.9347 6.85845 12.4196 6.84176 13.1136C6.82507 13.8075 6.3243 14.236 5.52515 14.2569C4.92632 14.2716 4.30453 14.1629 3.7349 14.2925C3.28421 14.3949 2.72084 14.6854 2.53096 15.0575C2.36404 15.3919 2.4934 16.0629 2.73962 16.3911C4.05414 18.1114 5.45212 19.7689 6.81255 21.4516C8.17297 23.1342 8.17505 24.8252 6.82298 26.4995C5.50985 28.1229 4.19254 29.7415 2.87107 31.3552C2.46837 31.8464 2.17417 32.3376 2.49967 32.9897C2.80431 33.5959 3.33428 33.7025 3.94355 33.6983C5.52515 33.6837 7.10883 33.6983 8.79476 33.6983C8.79476 32.1076 8.83649 30.5629 8.78015 29.0454C8.74014 28.1598 9.01355 27.2886 9.55217 26.5852C12.2855 22.7663 14.9772 18.9182 17.6897 15.0784C17.8462 14.8547 17.9881 14.6186 18.2155 14.2674H11.4634C10.2324 14.2674 9.70658 13.9204 9.69823 13.1115C9.68989 12.3026 10.2386 11.9159 11.4321 11.9159H20.1017C21.3015 11.9159 21.6958 12.3088 21.6979 13.5149C21.6979 17.6187 21.6979 21.7219 21.6979 25.8244V26.8047H28.2893C28.4979 25.469 28.8109 24.1417 28.8902 22.8019C28.9236 22.2626 28.5814 21.5791 28.1954 21.1631C26.9435 19.8065 25.5225 18.5942 24.2706 17.2334C23.7467 16.6817 23.3811 15.9986 23.2123 15.2562C23.0435 14.5137 23.0777 13.7394 23.3114 13.0148C23.5451 12.2902 23.9696 11.6422 24.5402 11.139C25.1107 10.6359 25.8062 10.2962 26.5533 10.1559C28.2079 9.82143 29.8918 9.58942 31.561 9.4013C32.7378 9.2717 33.5223 8.77422 34.0064 7.66012C34.6324 6.2283 35.3731 4.84665 36.0637 3.44201C36.8712 1.79489 38.1628 0.860549 40.0136 0.86473C41.8643 0.86891 43.1434 1.81161 43.9488 3.465C44.6665 4.94071 45.4219 6.39135 46.1146 7.89006C46.2759 8.29124 46.5445 8.64008 46.8909 8.89822C47.2373 9.15636 47.6481 9.31381 48.078 9.35323C49.6513 9.56225 51.2183 9.81726 52.7915 10.02C54.6569 10.2583 56.0403 11.1529 56.6516 12.9756C57.263 14.7983 56.7184 16.3576 55.3559 17.6682C54.154 18.8262 52.9751 20.0093 51.7712 21.1652C51.5033 21.397 51.3001 21.6946 51.1816 22.0288C51.0631 22.363 51.0333 22.7223 51.0952 23.0715C51.3038 24.3048 51.5125 25.5359 51.7211 26.8151H58.3V25.8871C58.3 21.8097 58.3 17.7323 58.3 13.6549C58.3 12.2817 58.6526 11.9242 59.9984 11.9242H75.4618C78.1346 11.9242 78.9818 12.4802 79.9791 14.8861V16.297C79.4033 17.1791 78.8795 18.1009 78.2411 18.937C77.2186 20.281 76.119 21.5665 75.0549 22.8792C74.3142 23.7905 74.3037 24.1835 75.0257 25.076C76.1879 26.512 77.3918 27.9146 78.506 29.3861C79.0757 30.1365 79.493 31.0061 79.9791 31.8213L80 33.0671ZM49.3508 26.7963C49.1714 25.7324 49.0295 24.7521 48.8417 23.7801C48.5141 22.0807 48.9273 20.6447 50.1854 19.4282C51.4102 18.2556 52.6037 17.0495 53.8223 15.8748C54.4482 15.2791 54.7216 14.5935 54.4587 13.7553C54.1853 12.8816 53.5302 12.4823 52.6559 12.3653C51.1077 12.1562 49.5678 11.8929 48.0196 11.7131C46.0937 11.4915 44.7375 10.5509 43.9362 8.75959C43.2978 7.33195 42.5571 5.9503 41.8831 4.53938C41.5034 3.74718 40.9567 3.21835 40.0344 3.20999C39.0767 3.20999 38.5175 3.73882 38.1252 4.56447C37.397 6.09453 36.6396 7.61205 35.8864 9.12957C35.1874 10.5384 34.0753 11.3849 32.5083 11.6128C30.8098 11.8594 29.1135 12.1291 27.4129 12.3611C26.5449 12.4802 25.871 12.8377 25.5768 13.7114C25.2826 14.5851 25.5768 15.2833 26.2153 15.8978C27.4359 17.0725 28.6315 18.2765 29.8521 19.4512C31.0727 20.6259 31.4921 22.0682 31.1896 23.7341C31.0081 24.7333 30.8495 25.7366 30.67 26.8026L49.3508 26.7963ZM71.2178 33.6941C72.9016 33.6941 74.4602 33.6941 76.0168 33.6941C76.6532 33.6941 77.2103 33.6063 77.5212 32.9584C77.8321 32.3104 77.5212 31.8129 77.1206 31.328C75.7991 29.7115 74.4825 28.0923 73.1708 26.4702C71.8416 24.8231 71.8437 23.1259 73.1708 21.4871C74.4672 19.8846 75.7671 18.2821 77.0705 16.6795C77.4878 16.18 77.8613 15.6908 77.5275 14.9927C77.1936 14.2946 76.6073 14.2423 75.9479 14.2444C71.4967 14.2528 67.0454 14.2528 62.5941 14.2444C62.375 14.2444 62.1538 14.2674 61.8283 14.2883C62.037 14.6144 62.1914 14.8485 62.352 15.0763C65.1313 19.0227 67.9252 22.9565 70.6711 26.9259C70.9915 27.4196 71.1724 27.9909 71.1948 28.5793C71.2616 30.2682 71.2178 31.9362 71.2178 33.6983V33.6941ZM60.712 16.8468V26.7754H67.7061L60.712 16.8468ZM12.3043 26.7984H19.3214V16.8488L12.3043 26.7984Z" fill="#0D3B54"/>
</svg>
